PathFileType	4	(X/Y/Z)	Patient4_TMGait_0pt3_01_left_06.trc.trc
DataRate	CameraRate	NumFrames	NumMarkers	Units	OrigDataRate	OrigDataStartFrame	OrigNumFrames
51.282051282051	51.282051282051	6	33	mm	51.282051282051	124	       141
Frame#	Time	Sacral			L.Shoulder			Chest			R.Shoulder			Neck			R.ASIS			L.ASIS			R.Thigh.Superior			R.Thigh.Lateral			R.Thigh.Inferior			R.Patella			L.Thigh.Superior			L.Thigh.Lateral			L.Thigh.Inferior			L.Patella			L.Shank.Superior			L.Shank.Lateral			L.Shank.Inferior			R.Shank.Superior			R.Shank.Lateral			R.Shank.Inferior			R.Heel			R.Midfoot.Superior			R.Midfoot.Lateral			R.Toe			L.Heel			L.Midfoot.Lateral			L.Midfoot.Superior			L.Toe			L.Elbow			L.Wrist			R.Elbow			R.Wrist			
		X1	Y1	Z1	X2	Y2	Z2	X3	Y3	Z3	X4	Y4	Z4	X5	Y5	Z5	X6	Y6	Z6	X7	Y7	Z7	X8	Y8	Z8	X9	Y9	Z9	X10	Y10	Z10	X11	Y11	Z11	X12	Y12	Z12	X13	Y13	Z13	X14	Y14	Z14	X15	Y15	Z15	X16	Y16	Z16	X17	Y17	Z17	X18	Y18	Z18	X19	Y19	Z19	X20	Y20	Z20	X21	Y21	Z21	X22	Y22	Z22	X23	Y23	Z23	X24	Y24	Z24	X25	Y25	Z25	X26	Y26	Z26	X27	Y27	Z27	X28	Y28	Z28	X29	Y29	Z29	X30	Y30	Z30	X31	Y31	Z31	X32	Y32	Z32	X33	Y33	Z33	

124	12.948500000000	820.191531361247	1000.794146646055	623.904856705206	970.824490344129	1421.809400312601	412.739501008741	1100.969630777693	1353.164252018799	552.200587227026	1055.447742934381	1433.154213462558	736.210730903828	989.367907179874	1486.486410031547	570.593987468910	1061.978641384866	926.466463974782	702.801600361249	1009.101421437213	959.606198792464	433.944251963434	1074.386304368941	719.681668906111	660.298404638240	987.513867178216	612.927711659370	722.691850755708	1048.957748443949	558.016891613250	633.293225426216	1037.496224751922	465.181460834567	636.029494774297	1086.740501585568	766.020343778345	455.861629421997	1022.242238382535	643.484455464557	380.659131440400	1122.060714734636	578.356832074316	439.478096884138	1139.504957292438	509.981735762368	436.651604068656	1119.709922300337	438.543831556195	420.096872148782	1046.845278534051	318.054697111534	357.157677733014	1122.925725706605	208.746618191747	409.463240893206	987.573169076827	382.928088008013	641.843196599826	899.407545505356	293.521452426823	705.853564553385	913.798680481062	195.970042735128	636.569836240178	750.170956712454	46.918057410676	605.213527705564	922.006112593802	95.965139677947	643.625923872151	831.590930709556	38.166215216957	681.044206655149	1039.986586054976	40.109547531532	675.936152901604	1022.527160061418	37.343800602402	433.205703061816	1098.699444229156	41.706368313740	355.190215630580	1175.192454116462	110.735700659117	384.215113123056	1306.476389926307	72.410376551982	357.889564799077	823.471068847667	1095.228650655944	339.264743354714	813.346446932183	834.452104440194	361.655875354746	1215.286852319942	1140.547376085046	857.014131015172	1445.870787662233	1221.890376602951	794.602438427273	
125	12.968000000000	820.679826888373	1000.410821942630	622.022466423835	969.611189005895	1421.438583652352	409.856225712248	1100.685272455540	1352.827594561363	548.471993469594	1056.219575291581	1432.702291385665	732.737036740437	988.930590248036	1486.058770228594	567.742505845502	1062.923825377031	925.965480586676	699.663815546556	1008.540896613604	958.804294031408	431.127089483387	1073.530690153099	718.828638313046	658.020150107487	985.801638950179	612.805381556410	721.220784744414	1046.337789156895	557.144995427943	631.929805699915	1033.921288619976	464.431233161040	635.047096529021	1085.042562327382	763.874973132748	452.194625379331	1018.503258809990	641.494294707777	378.506347850795	1118.723547433731	576.079492446653	436.450984218419	1135.320823839882	507.741474165143	434.108506478033	1115.657271516157	436.423616353640	417.901221550284	1042.125055018296	315.863468239821	355.887662909319	1118.047822549823	206.530224140103	408.270891620423	983.609956986147	382.459521837423	641.100216334683	894.976331683048	293.803895528156	705.652511072398	908.761246358708	196.007520937725	636.488905303700	744.388137589358	47.422516572679	605.440451626183	916.350961474283	95.984426478037	643.661251743288	825.838795676763	38.315626104088	681.202895137994	1034.205575863670	39.945591133443	675.949403667813	1016.354230285877	37.019451905398	433.116113186442	1092.256808786970	39.963098120485	354.725217575503	1170.052844596318	107.549255767650	383.445077767106	1300.672643428425	66.858684567675	356.739177483967	823.569122332745	1094.324825741132	336.689214317556	817.365224558312	833.208247709315	359.720889325005	1219.861899110721	1141.899099882169	851.791032758891	1448.483902917135	1226.548993991198	786.347648839133	
126	12.987500000000	821.143572587038	1000.048261552490	619.839132631510	968.671144227668	1421.009785012749	406.737774535449	1100.596668685442	1352.415798323223	544.570076239997	1057.138354040199	1432.226216348598	729.067582598683	988.702720950206	1485.611352449020	564.595244691287	1063.844488283092	925.433313134387	696.310433631691	1008.053186030853	958.077051062234	428.110182567902	1072.851295442084	718.013706016964	655.569499394570	984.329124484743	612.677488572919	719.526694216505	1044.062375341626	556.298218779825	630.393614989545	1030.769439593981	463.649589102064	633.931349256931	1083.669682650013	762.088963744852	448.612566140152	1015.719098456812	639.762400465385	376.297346072539	1116.254440246513	574.175577143786	433.627235337978	1132.188878422580	505.828123665880	431.722020446941	1112.557090662010	434.553575204296	415.890199539811	1038.304356421570	314.033263867756	354.673801180570	1113.673263012460	204.556337593865	407.322546822214	979.977457607196	381.999268163001	640.254960899907	890.758793563068	294.207882211396	705.339041840574	903.908679937031	196.113956526805	636.387351757879	738.662987564940	48.129835561844	605.699187524973	910.810885241322	96.065975050258	643.739178427567	820.140319339586	38.562082907969	681.382878623233	1028.470365034012	39.750717014173	675.974070488236	1010.350165905392	36.962762700075	433.134786333180	1086.092426279559	38.515937380973	354.487462527682	1165.151922065442	104.640452316267	383.033424052040	1295.142940027288	61.536974504700	356.137945199620	824.496324561346	1093.058723845501	333.689621582885	822.526989491545	831.665215973570	357.068641501840	1223.783289733480	1142.752525874394	846.498514573957	1450.989031238149	1229.563155148138	778.444650875213	
127	13.007000000000	821.583887434475	999.755117640816	617.328165483782	967.989343126744	1420.590924040465	403.401986295796	1100.695935568911	1351.990630888054	540.506812875900	1058.194419437206	1431.773359011926	725.221030348346	988.670626204729	1485.193428860277	561.183365831013	1064.726178944750	924.916577611255	692.722805473200	1007.650490904748	957.488198506804	424.865530520221	1072.284831201805	717.261873930034	652.933328798353	983.026494709905	612.587511213472	717.610109537755	1042.060302838330	555.503840106492	628.687545274440	1027.965842834469	462.878407878786	632.687994205849	1082.731169940117	760.797819866813	445.152319897736	1014.027568218131	638.382372773686	374.017166936626	1114.782370424196	572.743592191283	430.989903833120	1130.208419182308	504.298566071917	429.490806945524	1110.483889716554	432.975265134760	414.065223979003	1035.449613059085	312.643275297727	353.479177431699	1109.798020157920	202.886365389368	406.598376248308	976.618784596455	381.589237906718	639.314106837694	886.707896714570	294.757142917525	704.902484322003	899.214553673600	196.314113111508	636.266752410502	732.990936489390	49.061755923641	605.988151902081	905.384842263671	96.221980864275	643.871435238893	814.487683786455	38.919070785721	681.582101222388	1022.772961237882	39.528842961446	676.009741120586	1004.539581636023	37.126150808057	433.201360737891	1080.213446892368	37.428120144510	354.408152787266	1160.422716374713	102.166739886085	382.906561038434	1289.852805601115	56.758491867492	355.960944920228	826.136957858802	1091.558402538597	330.307873736809	828.616281249292	829.970336198733	353.668918246525	1227.095960639775	1143.152550598693	841.136937476049	1453.496064915187	1230.911167273695	770.896095304108	
128	13.026500000000	822.014802942582	999.562098550758	614.450720136945	967.554123213740	1420.238175012762	399.858302658864	1100.969401847547	1351.606127513496	536.294206704476	1059.355559743731	1431.375768475979	721.214047625714	988.812611010451	1484.841920641554	557.540064837130	1065.559615775837	924.456223771833	688.887703419352	1007.364846012731	957.070682621395	421.363109476209	1071.765075675359	716.590297899903	650.113359514653	981.808108090386	612.576946123847	715.481490193666	1040.243367540641	554.783965161344	626.827767400313	1025.409809784408	462.156467784626	631.331282958335	1082.311831616867	760.066927435727	441.838009127040	1013.479707853421	637.391380200945	371.661076582302	1114.351319223890	571.808713644355	428.518876125247	1129.385788514335	503.147884020372	427.412761489606	1109.419388418594	431.680295238360	412.424859044455	1033.525030830430	311.712157651860	352.294258844195	1106.354203270647	201.533889289309	406.083395864121	973.455649136596	381.265179375799	638.289391467348	882.760854385918	295.467497737213	704.338380062378	894.637464709354	196.626913668907	636.129231141158	727.359454719325	50.227802405073	606.302167615192	900.058266578705	96.459905108919	644.065203491116	808.864179088232	39.395468490010	681.796484278233	1017.095378599172	39.286250404857	676.054854597890	998.891600610064	37.449354238490	433.279583949462	1074.563354303601	36.717278353230	354.431891994447	1155.760386403654	100.215221482913	382.990533328039	1284.715328619785	52.723070972572	356.067876631410	828.364801663324	1089.952323650625	326.566944459829	835.439329708309	828.268126826017	349.492845659695	1229.839926843706	1143.146190547660	835.698722128155	1456.084702691564	1230.564186440836	763.720942757158	
129	13.046000000000	822.458893449130	999.480435232457	611.157848839087	967.359748214134	1419.990891164835	396.105038048746	1101.399494465340	1351.303830274989	531.942807537065	1060.569638460543	1431.048537541938	717.059200610912	989.101201260678	1484.578764043531	553.693979264816	1066.340567957575	924.082599206305	684.800592187312	1007.245623935766	956.825374782145	417.577254970466	1071.231140614691	716.006574647853	647.125745716742	980.582620310018	612.680853285691	713.158231451245	1038.518075757922	554.153477696361	624.840645066705	1022.988075598931	461.515128451885	629.881360531126	1082.454423856769	759.880542188511	438.676413320645	1014.025164826176	636.766281424039	369.232876079724	1114.908681516220	571.324741677102	426.195428584493	1129.634001515981	502.318554507188	425.484307983850	1109.258274805229	430.619616395293	410.961191154487	1032.407418599152	311.200755779134	351.131703119457	1103.235548887192	200.472034819149	405.763023574202	970.397603076014	381.052661017615	637.195170135115	878.846985849929	296.346635618446	703.649005536124	890.125745316312	197.064397222693	635.977157879173	721.748633680560	51.626455447176	606.633296377782	894.803570616049	96.781064641176	644.321268344329	803.245086550832	39.995979080120	682.020707872982	1011.409659265641	39.030530720374	676.106756370741	993.343504285995	37.874367086829	433.355032318720	1069.052033300033	36.361887154515	354.519839869523	1151.056622886429	98.800022805124	383.219883492640	1279.623969909927	49.502213593908	356.327642095523	831.049742738653	1088.360355623027	322.463334248744	842.834967253554	826.692070179383	344.512989618306	1232.042857127216	1142.775621137501	830.171632621028	1458.794789569269	1228.481795302016	756.961550593296	
